#N canvas 966 82 948 968 12;
#X obj 112 485 vsl 30 100 0 1 0 0 empty 0-posY empty 0 -9 0 10 -262144
-1 -1 1392 1;
#X obj 147 590 hsl 95 30 0 1 0 0 empty 0-posX empty -2 -8 0 10 -262144
-1 -1 7491 1;
#X obj 144 485 vsl 100 100 0 1 0 0 empty 0-depth empty 0 -9 0 10 -258113
-1 -1 3140 1;
#N canvas 293 272 450 300 fps 0;
#X obj 155 43 inlet;
#X obj 182 247 outlet;
#X obj 225 158 + 1;
#X obj 212 74 metro 1000;
#X obj 197 158 f;
#X msg 212 127 0;
#X obj 155 74 bang;
#X obj 182 211 f;
#X obj 212 43 inlet;
#X obj 212 101 trigger bang bang;
#X connect 0 0 6 0;
#X connect 2 0 4 1;
#X connect 3 0 9 0;
#X connect 4 0 2 0;
#X connect 4 0 7 1;
#X connect 5 0 4 1;
#X connect 6 0 4 0;
#X connect 7 0 1 0;
#X connect 8 0 3 0;
#X connect 9 0 5 0;
#X connect 9 1 7 0;
#X restore 342 290 pd fps;
#X floatatom 342 312 5 0 0 0 - - -;
#X obj 398 292 tgl 17 0 empty empty empty 17 7 0 10 -162280 -1 -1 0
1;
#X obj 342 264 t b b;
#X obj 112 350 unpackOSC;
#X obj 112 376 routeOSC /b;
#X obj 112 590 tgl 30 0 empty 0-alive empty 3 7 0 10 -260097 -1 -1
1 1;
#X obj 112 432 clone E256_calibrate 8;
#X obj 112 405 s raw_blobs;
#X obj 129 879 t b f;
#X obj 179 901 t b f;
#X obj 228 923 t b f;
#X obj 278 945 t b f;
#X obj 112 1048 expr $f1 + $f2 + $f3 + $f4 + $f5 + $f6 + $f7 + $f8
;
#X obj 327 967 t b f;
#X obj 377 989 t b f;
#X obj 427 1011 t b f;
#X obj 112 784 r 0-alive;
#X obj 129 833 r 1-alive;
#X obj 179 855 r 2-alive;
#X obj 228 878 r 3-alive;
#X obj 278 900 r 4-alive;
#X obj 327 922 r 5-alive;
#X obj 377 943 r 6-alive;
#X obj 427 966 r 7-alive;
#X floatatom 121 1075 5 0 0 0 - - -;
#X obj 129 855 change;
#X obj 179 877 change;
#X obj 228 900 change;
#X obj 278 922 change;
#X obj 327 944 change;
#X obj 377 966 change;
#X obj 427 988 change;
#X obj 112 811 change;
#X obj 112 1099 s SUMM;
#X obj 262 485 vsl 30 100 0 1 0 0 empty 1-posY empty 0 -9 0 10 -262144
-1 -1 9745 1;
#X obj 297 590 hsl 95 30 0 1 0 0 empty 1-posX empty -2 -8 0 10 -262144
-1 -1 7344 1;
#X obj 294 485 vsl 100 100 0 1 0 0 empty 1-depth empty 0 -9 0 10 -258113
-1 -1 2283 1;
#X obj 262 590 tgl 30 0 empty 1-alive empty 3 7 0 10 -260097 -1 -1
1 1;
#X obj 412 485 vsl 30 100 0 1 0 0 empty 2-posY empty 0 -9 0 10 -262144
-1 -1 6806 1;
#X obj 447 590 hsl 95 30 0 1 0 0 empty 2-posX empty -2 -8 0 10 -262144
-1 -1 1175 1;
#X obj 444 485 vsl 100 100 0 1 0 0 empty 2-depth empty 0 -9 0 10 -258113
-1 -1 0 1;
#X obj 412 590 tgl 30 0 empty 2-alive empty 3 7 0 10 -260097 -1 -1
0 1;
#X obj 562 485 vsl 30 100 0 1 0 0 empty 3-posY empty 0 -9 0 10 -262144
-1 -1 6806 1;
#X obj 597 590 hsl 95 30 0 1 0 0 empty 3-posX empty -2 -8 0 10 -262144
-1 -1 147 1;
#X obj 594 485 vsl 100 100 0 1 0 0 empty 3-depth empty 0 -9 0 10 -258113
-1 -1 0 1;
#X obj 562 590 tgl 30 0 empty 3-alive empty 3 7 0 10 -260097 -1 -1
0 1;
#X obj 112 635 vsl 30 100 0 1 0 0 empty 4-posY empty 0 -9 0 10 -262144
-1 -1 7734 1;
#X obj 147 740 hsl 95 30 0 1 0 0 empty 4-posX empty -2 -8 0 10 -262144
-1 -1 3525 1;
#X obj 144 635 vsl 100 100 0 1 0 0 empty 4-depth empty 0 -9 0 10 -258113
-1 -1 0 1;
#X obj 112 740 tgl 30 0 empty 4-alive empty 3 7 0 10 -260097 -1 -1
0 1;
#X obj 262 635 vsl 30 100 0 1 0 0 empty 5-posY empty 0 -9 0 10 -262144
-1 -1 0 1;
#X obj 297 740 hsl 95 30 0 1 0 0 empty 5-posX empty -2 -8 0 10 -262144
-1 -1 0 1;
#X obj 294 635 vsl 100 100 0 1 0 0 empty 5-depth empty 0 -9 0 10 -258113
-1 -1 0 1;
#X obj 262 740 tgl 30 0 empty 5-alive empty 3 7 0 10 -260097 -1 -1
0 1;
#X obj 412 635 vsl 30 100 0 1 0 0 empty 6-posY empty 0 -9 0 10 -262144
-1 -1 0 1;
#X obj 447 740 hsl 95 30 0 1 0 0 empty 6-posX empty -2 -8 0 10 -262144
-1 -1 0 1;
#X obj 444 635 vsl 100 100 0 1 0 0 empty 6-depth empty 0 -9 0 10 -258113
-1 -1 0 1;
#X obj 412 740 tgl 30 0 empty 6-alive empty 3 7 0 10 -260097 -1 -1
0 1;
#X obj 562 635 vsl 30 100 0 1 0 0 empty 7-posY empty 0 -9 0 10 -262144
-1 -1 0 1;
#X obj 597 740 hsl 95 30 0 1 0 0 empty 7-posX empty -2 -8 0 10 -262144
-1 -1 0 1;
#X obj 594 635 vsl 100 100 0 1 0 0 empty 7-depth empty 0 -9 0 10 -258113
-1 -1 0 1;
#X obj 562 740 tgl 30 0 empty 7-alive empty 3 7 0 10 -260097 -1 -1
0 1;
#X msg 130 184 disconnect;
#X msg 112 159 connect 192.168.0.113 7771;
#X floatatom 112 280 5 0 0 1 Connected - -;
#X text 111 94 /b -> frame_request;
#X text 111 34 /c -> calibration_request;
#X text 111 54 /r -> row_frame_request;
#X text 111 74 /t -> set_threshold;
#X obj 112 255 mrpeach/udpsend;
#X obj 112 324 udpreceive 3001;
#X connect 3 0 4 0;
#X connect 5 0 3 1;
#X connect 6 0 3 0;
#X connect 7 0 8 0;
#X connect 8 0 11 0;
#X connect 12 0 16 0;
#X connect 12 1 16 1;
#X connect 13 0 16 0;
#X connect 13 1 16 2;
#X connect 14 0 16 0;
#X connect 14 1 16 3;
#X connect 15 0 16 0;
#X connect 15 1 16 4;
#X connect 16 0 28 0;
#X connect 16 0 37 0;
#X connect 17 0 16 0;
#X connect 17 1 16 5;
#X connect 18 0 16 0;
#X connect 18 1 16 6;
#X connect 19 0 16 0;
#X connect 19 1 16 7;
#X connect 20 0 36 0;
#X connect 21 0 29 0;
#X connect 22 0 30 0;
#X connect 23 0 31 0;
#X connect 24 0 32 0;
#X connect 25 0 33 0;
#X connect 26 0 34 0;
#X connect 27 0 35 0;
#X connect 29 0 12 0;
#X connect 30 0 13 0;
#X connect 31 0 14 0;
#X connect 32 0 15 0;
#X connect 33 0 17 0;
#X connect 34 0 18 0;
#X connect 35 0 19 0;
#X connect 36 0 16 0;
#X connect 66 0 73 0;
#X connect 67 0 73 0;
#X connect 73 0 68 0;
#X connect 74 0 7 0;
